<mxfile host="Electron" agent="Mozilla/5.0 (X11; Linux x86_64) AppleWebKit/537.36 (KHTML, like Gecko) draw.io/26.0.4 Chrome/128.0.6613.186 Electron/32.2.5 Safari/537.36" version="26.0.4">
  <diagram name="Page-1" id="VUbnjAggrL2J2RbWiqGg">
    <mxGraphModel dx="1114" dy="1198" grid="1" gridSize="10" guides="1" tooltips="1" connect="1" arrows="1" fold="1" page="1" pageScale="1" pageWidth="850" pageHeight="1100" math="0" shadow="0">
      <root>
        <mxCell id="0" />
        <mxCell id="1" parent="0" />
        <mxCell id="atBMbzUlIzRrrbkU6Ayg-1" value="On-Premises" style="points=[[0,0],[0.25,0],[0.5,0],[0.75,0],[1,0],[1,0.25],[1,0.5],[1,0.75],[1,1],[0.75,1],[0.5,1],[0.25,1],[0,1],[0,0.75],[0,0.5],[0,0.25]];outlineConnect=0;gradientColor=none;html=1;whiteSpace=wrap;fontSize=12;fontStyle=0;container=1;pointerEvents=0;collapsible=0;recursiveResize=0;shape=mxgraph.aws4.group;grIcon=mxgraph.aws4.group_corporate_data_center;strokeColor=#7D8998;fillColor=none;verticalAlign=top;align=left;spacingLeft=30;fontColor=#5A6C86;dashed=0;" vertex="1" parent="1">
          <mxGeometry x="20" y="270" width="320" height="470" as="geometry" />
        </mxCell>
        <mxCell id="atBMbzUlIzRrrbkU6Ayg-4" value="Tape Gateway&lt;div&gt;&lt;i&gt;local cache&lt;/i&gt;&lt;/div&gt;" style="sketch=0;outlineConnect=0;fontColor=#232F3E;gradientColor=none;fillColor=#7AA116;strokeColor=none;dashed=0;verticalLabelPosition=bottom;verticalAlign=top;align=center;html=1;fontSize=12;fontStyle=0;aspect=fixed;pointerEvents=1;shape=mxgraph.aws4.tape_gateway;" vertex="1" parent="atBMbzUlIzRrrbkU6Ayg-1">
          <mxGeometry x="220.25" y="339.5" width="74" height="78" as="geometry" />
        </mxCell>
        <mxCell id="atBMbzUlIzRrrbkU6Ayg-19" value="&amp;nbsp;NFS / SMB&amp;nbsp;" style="edgeStyle=orthogonalEdgeStyle;rounded=0;orthogonalLoop=1;jettySize=auto;html=1;" edge="1" parent="atBMbzUlIzRrrbkU6Ayg-1" source="atBMbzUlIzRrrbkU6Ayg-15" target="atBMbzUlIzRrrbkU6Ayg-17">
          <mxGeometry relative="1" as="geometry" />
        </mxCell>
        <mxCell id="atBMbzUlIzRrrbkU6Ayg-15" value="User/group file shares" style="sketch=0;outlineConnect=0;fontColor=#232F3E;gradientColor=none;fillColor=#232F3D;strokeColor=none;dashed=0;verticalLabelPosition=bottom;verticalAlign=top;align=center;html=1;fontSize=12;fontStyle=0;aspect=fixed;pointerEvents=1;shape=mxgraph.aws4.folders;" vertex="1" parent="atBMbzUlIzRrrbkU6Ayg-1">
          <mxGeometry x="35.75" y="40" width="78" height="71" as="geometry" />
        </mxCell>
        <mxCell id="atBMbzUlIzRrrbkU6Ayg-21" value="&amp;nbsp;iSCI VTL&amp;nbsp;" style="edgeStyle=orthogonalEdgeStyle;rounded=0;orthogonalLoop=1;jettySize=auto;html=1;" edge="1" parent="atBMbzUlIzRrrbkU6Ayg-1" source="atBMbzUlIzRrrbkU6Ayg-16" target="atBMbzUlIzRrrbkU6Ayg-4">
          <mxGeometry relative="1" as="geometry" />
        </mxCell>
        <mxCell id="atBMbzUlIzRrrbkU6Ayg-16" value="Backup&amp;nbsp;&lt;span style=&quot;background-color: transparent; color: light-dark(rgb(35, 47, 62), rgb(189, 199, 212));&quot;&gt;Application&lt;/span&gt;" style="sketch=0;outlineConnect=0;fontColor=#232F3E;gradientColor=none;fillColor=#232F3D;strokeColor=none;dashed=0;verticalLabelPosition=bottom;verticalAlign=top;align=center;html=1;fontSize=12;fontStyle=0;aspect=fixed;pointerEvents=1;shape=mxgraph.aws4.traditional_server;" vertex="1" parent="atBMbzUlIzRrrbkU6Ayg-1">
          <mxGeometry x="52.25" y="339.5" width="45" height="78" as="geometry" />
        </mxCell>
        <mxCell id="atBMbzUlIzRrrbkU6Ayg-20" value="&amp;nbsp;iSCI&amp;nbsp;" style="edgeStyle=orthogonalEdgeStyle;rounded=0;orthogonalLoop=1;jettySize=auto;html=1;" edge="1" parent="atBMbzUlIzRrrbkU6Ayg-1" source="atBMbzUlIzRrrbkU6Ayg-12" target="atBMbzUlIzRrrbkU6Ayg-18">
          <mxGeometry relative="1" as="geometry" />
        </mxCell>
        <mxCell id="atBMbzUlIzRrrbkU6Ayg-12" value="Application&amp;nbsp;&lt;span style=&quot;background-color: transparent; color: light-dark(rgb(35, 47, 62), rgb(189, 199, 212));&quot;&gt;Server&lt;/span&gt;" style="sketch=0;outlineConnect=0;fontColor=#232F3E;gradientColor=none;fillColor=#232F3D;strokeColor=none;dashed=0;verticalLabelPosition=bottom;verticalAlign=top;align=center;html=1;fontSize=12;fontStyle=0;aspect=fixed;pointerEvents=1;shape=mxgraph.aws4.traditional_server;" vertex="1" parent="atBMbzUlIzRrrbkU6Ayg-1">
          <mxGeometry x="52.25" y="189.5" width="45" height="78" as="geometry" />
        </mxCell>
        <mxCell id="atBMbzUlIzRrrbkU6Ayg-18" value="Volume Gateway&lt;div&gt;&lt;i&gt;local cache&lt;/i&gt;&lt;/div&gt;" style="sketch=0;outlineConnect=0;fontColor=#232F3E;gradientColor=none;fillColor=#7AA116;strokeColor=none;dashed=0;verticalLabelPosition=bottom;verticalAlign=top;align=center;html=1;fontSize=12;fontStyle=0;aspect=fixed;pointerEvents=1;shape=mxgraph.aws4.volume_gateway;" vertex="1" parent="atBMbzUlIzRrrbkU6Ayg-1">
          <mxGeometry x="224.75" y="189.5" width="65" height="78" as="geometry" />
        </mxCell>
        <mxCell id="atBMbzUlIzRrrbkU6Ayg-17" value="File Gateway&lt;div&gt;&lt;i&gt;local cache&lt;/i&gt;&lt;/div&gt;" style="sketch=0;outlineConnect=0;fontColor=#232F3E;gradientColor=none;fillColor=#7AA116;strokeColor=none;dashed=0;verticalLabelPosition=bottom;verticalAlign=top;align=center;html=1;fontSize=12;fontStyle=0;aspect=fixed;pointerEvents=1;shape=mxgraph.aws4.file_gateway;" vertex="1" parent="atBMbzUlIzRrrbkU6Ayg-1">
          <mxGeometry x="222.75" y="36.5" width="69" height="78" as="geometry" />
        </mxCell>
        <mxCell id="atBMbzUlIzRrrbkU6Ayg-5" value="AWS Cloud" style="points=[[0,0],[0.25,0],[0.5,0],[0.75,0],[1,0],[1,0.25],[1,0.5],[1,0.75],[1,1],[0.75,1],[0.5,1],[0.25,1],[0,1],[0,0.75],[0,0.5],[0,0.25]];outlineConnect=0;gradientColor=none;html=1;whiteSpace=wrap;fontSize=12;fontStyle=0;container=1;pointerEvents=0;collapsible=0;recursiveResize=0;shape=mxgraph.aws4.group;grIcon=mxgraph.aws4.group_aws_cloud_alt;strokeColor=#232F3E;fillColor=none;verticalAlign=top;align=left;spacingLeft=30;fontColor=#232F3E;dashed=0;" vertex="1" parent="1">
          <mxGeometry x="760" y="210" width="430" height="600" as="geometry" />
        </mxCell>
        <mxCell id="atBMbzUlIzRrrbkU6Ayg-42" style="edgeStyle=orthogonalEdgeStyle;rounded=0;orthogonalLoop=1;jettySize=auto;html=1;" edge="1" parent="atBMbzUlIzRrrbkU6Ayg-5" source="atBMbzUlIzRrrbkU6Ayg-27" target="atBMbzUlIzRrrbkU6Ayg-35">
          <mxGeometry relative="1" as="geometry" />
        </mxCell>
        <mxCell id="atBMbzUlIzRrrbkU6Ayg-27" value="Amazon S3&lt;div&gt;excluding Glacier &amp;amp;&lt;/div&gt;&lt;div&gt;Glacier Deep Archive&lt;/div&gt;" style="sketch=0;points=[[0,0,0],[0.25,0,0],[0.5,0,0],[0.75,0,0],[1,0,0],[0,1,0],[0.25,1,0],[0.5,1,0],[0.75,1,0],[1,1,0],[0,0.25,0],[0,0.5,0],[0,0.75,0],[1,0.25,0],[1,0.5,0],[1,0.75,0]];outlineConnect=0;fontColor=#232F3E;fillColor=#7AA116;strokeColor=#ffffff;dashed=0;verticalLabelPosition=bottom;verticalAlign=top;align=center;html=1;fontSize=12;fontStyle=0;aspect=fixed;shape=mxgraph.aws4.resourceIcon;resIcon=mxgraph.aws4.s3;" vertex="1" parent="atBMbzUlIzRrrbkU6Ayg-5">
          <mxGeometry x="50" y="50" width="78" height="78" as="geometry" />
        </mxCell>
        <mxCell id="atBMbzUlIzRrrbkU6Ayg-41" style="edgeStyle=orthogonalEdgeStyle;rounded=0;orthogonalLoop=1;jettySize=auto;html=1;" edge="1" parent="atBMbzUlIzRrrbkU6Ayg-5" source="atBMbzUlIzRrrbkU6Ayg-28" target="atBMbzUlIzRrrbkU6Ayg-36">
          <mxGeometry relative="1" as="geometry" />
        </mxCell>
        <mxCell id="atBMbzUlIzRrrbkU6Ayg-28" value="Amazon S3" style="sketch=0;points=[[0,0,0],[0.25,0,0],[0.5,0,0],[0.75,0,0],[1,0,0],[0,1,0],[0.25,1,0],[0.5,1,0],[0.75,1,0],[1,1,0],[0,0.25,0],[0,0.5,0],[0,0.75,0],[1,0.25,0],[1,0.5,0],[1,0.75,0]];outlineConnect=0;fontColor=#232F3E;fillColor=#7AA116;strokeColor=#ffffff;dashed=0;verticalLabelPosition=bottom;verticalAlign=top;align=center;html=1;fontSize=12;fontStyle=0;aspect=fixed;shape=mxgraph.aws4.resourceIcon;resIcon=mxgraph.aws4.s3;" vertex="1" parent="atBMbzUlIzRrrbkU6Ayg-5">
          <mxGeometry x="50" y="192" width="78" height="78" as="geometry" />
        </mxCell>
        <mxCell id="atBMbzUlIzRrrbkU6Ayg-40" value="&amp;nbsp;Eject from backup application&amp;nbsp;" style="edgeStyle=orthogonalEdgeStyle;rounded=0;orthogonalLoop=1;jettySize=auto;html=1;" edge="1" parent="atBMbzUlIzRrrbkU6Ayg-5" source="atBMbzUlIzRrrbkU6Ayg-29" target="atBMbzUlIzRrrbkU6Ayg-37">
          <mxGeometry relative="1" as="geometry" />
        </mxCell>
        <mxCell id="atBMbzUlIzRrrbkU6Ayg-29" value="Amazon S3&lt;div&gt;Tape Library&lt;/div&gt;" style="sketch=0;points=[[0,0,0],[0.25,0,0],[0.5,0,0],[0.75,0,0],[1,0,0],[0,1,0],[0.25,1,0],[0.5,1,0],[0.75,1,0],[1,1,0],[0,0.25,0],[0,0.5,0],[0,0.75,0],[1,0.25,0],[1,0.5,0],[1,0.75,0]];outlineConnect=0;fontColor=#232F3E;fillColor=#7AA116;strokeColor=#ffffff;dashed=0;verticalLabelPosition=bottom;verticalAlign=top;align=center;html=1;fontSize=12;fontStyle=0;aspect=fixed;shape=mxgraph.aws4.resourceIcon;resIcon=mxgraph.aws4.s3;" vertex="1" parent="atBMbzUlIzRrrbkU6Ayg-5">
          <mxGeometry x="50" y="330" width="78" height="78" as="geometry" />
        </mxCell>
        <mxCell id="atBMbzUlIzRrrbkU6Ayg-39" value="Automated Backups" style="edgeStyle=orthogonalEdgeStyle;rounded=0;orthogonalLoop=1;jettySize=auto;html=1;" edge="1" parent="atBMbzUlIzRrrbkU6Ayg-5" source="atBMbzUlIzRrrbkU6Ayg-30" target="atBMbzUlIzRrrbkU6Ayg-38">
          <mxGeometry relative="1" as="geometry" />
        </mxCell>
        <mxCell id="atBMbzUlIzRrrbkU6Ayg-30" value="Amazon FSx&lt;div&gt;For Windows File Server&lt;/div&gt;" style="sketch=0;points=[[0,0,0],[0.25,0,0],[0.5,0,0],[0.75,0,0],[1,0,0],[0,1,0],[0.25,1,0],[0.5,1,0],[0.75,1,0],[1,1,0],[0,0.25,0],[0,0.5,0],[0,0.75,0],[1,0.25,0],[1,0.5,0],[1,0.75,0]];outlineConnect=0;fontColor=#232F3E;fillColor=#7AA116;strokeColor=#ffffff;dashed=0;verticalLabelPosition=bottom;verticalAlign=top;align=center;html=1;fontSize=12;fontStyle=0;aspect=fixed;shape=mxgraph.aws4.resourceIcon;resIcon=mxgraph.aws4.fsx_for_windows_file_server;" vertex="1" parent="atBMbzUlIzRrrbkU6Ayg-5">
          <mxGeometry x="50" y="470" width="78" height="78" as="geometry" />
        </mxCell>
        <mxCell id="atBMbzUlIzRrrbkU6Ayg-37" value="Tape Archive&lt;div&gt;Glacier &amp;amp;&lt;/div&gt;&lt;div&gt;Glacier Deep Archive&lt;/div&gt;" style="sketch=0;outlineConnect=0;fontColor=#232F3E;gradientColor=none;fillColor=#7AA116;strokeColor=none;dashed=0;verticalLabelPosition=bottom;verticalAlign=top;align=center;html=1;fontSize=12;fontStyle=0;aspect=fixed;pointerEvents=1;shape=mxgraph.aws4.glacier;" vertex="1" parent="atBMbzUlIzRrrbkU6Ayg-5">
          <mxGeometry x="318" y="330" width="75" height="78" as="geometry" />
        </mxCell>
        <mxCell id="atBMbzUlIzRrrbkU6Ayg-36" value="AWS EBS" style="sketch=0;points=[[0,0,0],[0.25,0,0],[0.5,0,0],[0.75,0,0],[1,0,0],[0,1,0],[0.25,1,0],[0.5,1,0],[0.75,1,0],[1,1,0],[0,0.25,0],[0,0.5,0],[0,0.75,0],[1,0.25,0],[1,0.5,0],[1,0.75,0]];outlineConnect=0;fontColor=#232F3E;fillColor=#7AA116;strokeColor=#ffffff;dashed=0;verticalLabelPosition=bottom;verticalAlign=top;align=center;html=1;fontSize=12;fontStyle=0;aspect=fixed;shape=mxgraph.aws4.resourceIcon;resIcon=mxgraph.aws4.elastic_block_store;" vertex="1" parent="atBMbzUlIzRrrbkU6Ayg-5">
          <mxGeometry x="316.5" y="192" width="78" height="78" as="geometry" />
        </mxCell>
        <mxCell id="atBMbzUlIzRrrbkU6Ayg-35" value="Any S3 Storage Class&lt;div&gt;Including Glacier&lt;/div&gt;" style="sketch=0;outlineConnect=0;fontColor=#232F3E;gradientColor=none;fillColor=#7AA116;strokeColor=none;dashed=0;verticalLabelPosition=bottom;verticalAlign=top;align=center;html=1;fontSize=12;fontStyle=0;aspect=fixed;pointerEvents=1;shape=mxgraph.aws4.bucket;" vertex="1" parent="atBMbzUlIzRrrbkU6Ayg-5">
          <mxGeometry x="318" y="50" width="75" height="78" as="geometry" />
        </mxCell>
        <mxCell id="atBMbzUlIzRrrbkU6Ayg-38" value="Amazon S3" style="sketch=0;outlineConnect=0;fontColor=#232F3E;gradientColor=none;fillColor=#7AA116;strokeColor=none;dashed=0;verticalLabelPosition=bottom;verticalAlign=top;align=center;html=1;fontSize=12;fontStyle=0;aspect=fixed;pointerEvents=1;shape=mxgraph.aws4.bucket;" vertex="1" parent="atBMbzUlIzRrrbkU6Ayg-5">
          <mxGeometry x="318" y="470" width="75" height="78" as="geometry" />
        </mxCell>
        <mxCell id="atBMbzUlIzRrrbkU6Ayg-32" style="edgeStyle=orthogonalEdgeStyle;rounded=0;orthogonalLoop=1;jettySize=auto;html=1;" edge="1" parent="1" source="atBMbzUlIzRrrbkU6Ayg-22" target="atBMbzUlIzRrrbkU6Ayg-28">
          <mxGeometry relative="1" as="geometry" />
        </mxCell>
        <mxCell id="atBMbzUlIzRrrbkU6Ayg-22" value="AWS Storage Gateway&lt;div&gt;&lt;b&gt;(Bridge)&lt;/b&gt;&lt;/div&gt;" style="sketch=0;points=[[0,0,0],[0.25,0,0],[0.5,0,0],[0.75,0,0],[1,0,0],[0,1,0],[0.25,1,0],[0.5,1,0],[0.75,1,0],[1,1,0],[0,0.25,0],[0,0.5,0],[0,0.75,0],[1,0.25,0],[1,0.5,0],[1,0.75,0]];outlineConnect=0;fontColor=#232F3E;fillColor=#7AA116;strokeColor=#ffffff;dashed=0;verticalLabelPosition=bottom;verticalAlign=top;align=center;html=1;fontSize=12;fontStyle=0;aspect=fixed;shape=mxgraph.aws4.resourceIcon;resIcon=mxgraph.aws4.storage_gateway;" vertex="1" parent="1">
          <mxGeometry x="540" y="460" width="78" height="78" as="geometry" />
        </mxCell>
        <mxCell id="atBMbzUlIzRrrbkU6Ayg-25" style="edgeStyle=orthogonalEdgeStyle;rounded=0;orthogonalLoop=1;jettySize=auto;html=1;entryX=0;entryY=0.5;entryDx=0;entryDy=0;entryPerimeter=0;" edge="1" parent="1" source="atBMbzUlIzRrrbkU6Ayg-17" target="atBMbzUlIzRrrbkU6Ayg-22">
          <mxGeometry relative="1" as="geometry">
            <Array as="points">
              <mxPoint x="430" y="346" />
              <mxPoint x="430" y="499" />
            </Array>
          </mxGeometry>
        </mxCell>
        <mxCell id="atBMbzUlIzRrrbkU6Ayg-26" style="edgeStyle=orthogonalEdgeStyle;rounded=0;orthogonalLoop=1;jettySize=auto;html=1;entryX=0;entryY=0.5;entryDx=0;entryDy=0;entryPerimeter=0;" edge="1" parent="1" source="atBMbzUlIzRrrbkU6Ayg-4" target="atBMbzUlIzRrrbkU6Ayg-22">
          <mxGeometry relative="1" as="geometry">
            <Array as="points">
              <mxPoint x="430" y="649" />
              <mxPoint x="430" y="499" />
            </Array>
          </mxGeometry>
        </mxCell>
        <mxCell id="atBMbzUlIzRrrbkU6Ayg-23" value="&lt;b&gt;&amp;nbsp;Encryption&lt;/b&gt; in Transit&lt;div&gt;&lt;b&gt;Internet&lt;/b&gt; or &lt;b&gt;Direct Connect&amp;nbsp;&lt;/b&gt;&lt;/div&gt;" style="edgeStyle=orthogonalEdgeStyle;rounded=0;orthogonalLoop=1;jettySize=auto;html=1;" edge="1" parent="1" source="atBMbzUlIzRrrbkU6Ayg-18" target="atBMbzUlIzRrrbkU6Ayg-22">
          <mxGeometry relative="1" as="geometry" />
        </mxCell>
        <mxCell id="atBMbzUlIzRrrbkU6Ayg-31" style="edgeStyle=orthogonalEdgeStyle;rounded=0;orthogonalLoop=1;jettySize=auto;html=1;entryX=0;entryY=0.5;entryDx=0;entryDy=0;entryPerimeter=0;" edge="1" parent="1" source="atBMbzUlIzRrrbkU6Ayg-22" target="atBMbzUlIzRrrbkU6Ayg-27">
          <mxGeometry relative="1" as="geometry" />
        </mxCell>
        <mxCell id="atBMbzUlIzRrrbkU6Ayg-33" style="edgeStyle=orthogonalEdgeStyle;rounded=0;orthogonalLoop=1;jettySize=auto;html=1;entryX=0;entryY=0.5;entryDx=0;entryDy=0;entryPerimeter=0;" edge="1" parent="1" source="atBMbzUlIzRrrbkU6Ayg-22" target="atBMbzUlIzRrrbkU6Ayg-29">
          <mxGeometry relative="1" as="geometry" />
        </mxCell>
        <mxCell id="atBMbzUlIzRrrbkU6Ayg-34" style="edgeStyle=orthogonalEdgeStyle;rounded=0;orthogonalLoop=1;jettySize=auto;html=1;entryX=0;entryY=0.5;entryDx=0;entryDy=0;entryPerimeter=0;" edge="1" parent="1" source="atBMbzUlIzRrrbkU6Ayg-22" target="atBMbzUlIzRrrbkU6Ayg-30">
          <mxGeometry relative="1" as="geometry" />
        </mxCell>
      </root>
    </mxGraphModel>
  </diagram>
</mxfile>
